<?xml version="1.0" encoding="UTF-8" standalone="no"?>
<!-- Created with Inkscape (http://www.inkscape.org/) -->

<svg
   width="210mm"
   height="210mm"
   viewBox="0 0 210 210"
   version="1.1"
   id="svg5"
   inkscape:version="1.1.1 (3bf5ae0d25, 2021-09-20)"
   sodipodi:docname="BingWallpaperPs.svg"
   xmlns:inkscape="http://www.inkscape.org/namespaces/inkscape"
   xmlns:sodipodi="http://sodipodi.sourceforge.net/DTD/sodipodi-0.dtd"
   xmlns="http://www.w3.org/2000/svg"
   xmlns:svg="http://www.w3.org/2000/svg">
  <sodipodi:namedview
     id="namedview7"
     pagecolor="#ffffff"
     bordercolor="#666666"
     borderopacity="1.0"
     inkscape:pageshadow="2"
     inkscape:pageopacity="0.0"
     inkscape:pagecheckerboard="0"
     inkscape:document-units="mm"
     showgrid="false"
     inkscape:zoom="0.7071068"
     inkscape:cx="495.68184"
     inkscape:cy="328.80464"
     inkscape:window-width="1920"
     inkscape:window-height="1017"
     inkscape:window-x="-8"
     inkscape:window-y="-8"
     inkscape:window-maximized="1"
     inkscape:current-layer="layer3"
     height="210mm" />
  <defs
     id="defs2" />
  <g
     inkscape:groupmode="layer"
     id="layer3"
     inkscape:label="background">
    <circle
       style="fill:#ffffff;fill-rule:evenodd;stroke-width:0.353702"
       id="path30"
       cx="105"
       cy="105"
       r="85.5" />
    <rect
       style="fill:#ffffff;stroke-width:0.217213"
       id="rect259"
       width="85.5"
       height="85.5"
       x="19.5"
       y="105" />
  </g>
  <g
     inkscape:label="Layer 1"
     inkscape:groupmode="layer"
     id="layer1">
    <g
       id="g823"
       transform="translate(6.4115565,6.9318262)">
      <path
         style="fill:#000000;fill-opacity:1;fill-rule:nonzero;stroke:none;stroke-width:1.05675"
         id="path198"
         d="m 29.298972,162.87882 c 0.668806,6.87507 2.56651,13.59505 2.728043,20.524 4.365368,-3.24799 9.691095,-5.49993 13.096097,-9.74398 1.131126,-1.4098 -0.746986,-3.53965 -1.003007,-5.32898 -0.418864,-2.92749 -0.749341,-5.86817 -1.020439,-8.81304 -0.566448,-6.15323 -1.590779,-21.63297 -1.650337,-27.1412 -0.06658,-6.16163 0.2533,-12.32132 0.37991,-18.48202 0.55731,-6.49931 0.739717,-13.04175 1.671941,-19.497922 3.255925,-22.549321 11.074859,-49.257214 25.401509,-67.464194 2.455739,-3.120887 5.596361,-5.635882 8.394543,-8.453822 -1.493388,1.222011 -5.466307,2.007434 -4.480167,3.666031 1.305581,2.195952 5.227585,0.337095 7.524826,1.454941 2.962963,1.441562 5.531117,3.669946 7.840181,6.020626 4.231184,4.307431 10.618301,14.009385 12.929398,19.542581 1.44515,3.459899 2.01762,7.222666 3.02642,10.833979 -1.40541,3.503675 -1.96318,7.481958 -4.216077,10.511063 -7.049923,9.478688 -17.820118,13.243292 -28.235779,17.490174 -4.249122,1.732566 -16.74505,6.097188 -21.96394,7.938551 -4.95536,3.166387 -12.687504,4.036962 -14.866078,9.499102 -1.285559,3.22318 6.689585,2.00775 10.143617,2.34114 6.154266,0.59402 12.36438,0.21727 18.543656,0.42787 15.552747,0.52985 28.122647,0.93073 43.527971,3.12932 6.21698,0.88727 12.33785,2.35096 18.50681,3.52644 9.38531,3.21782 16.5491,4.33686 23.84698,11.21772 2.13332,2.01148 3.94414,4.53462 4.89571,7.30799 0.81918,2.38758 0.96879,5.16258 0.20889,7.5697 -2.42589,7.68506 -9.63254,10.68707 -15.65548,14.83363 -1.50312,0.19531 -3.05075,0.17374 -4.50929,0.58624 -6.91784,1.95639 -13.62992,4.60375 -20.56329,6.50438 -15.638822,4.28703 -26.009215,5.87581 -41.770305,8.78784 0,0 -10.453298,7.89279 -10.453298,7.89279 v 0 c 15.331295,-2.8761 26.753501,-4.74921 41.953013,-8.7392 6.82731,-1.79224 13.7703,-3.36024 20.28491,-6.07741 9.69952,-4.04563 18.78732,-9.42489 28.18093,-14.13736 6.63195,-4.89456 13.63734,-7.75879 15.74063,-16.48169 0.64332,-2.66792 0.2632,-5.6475 -0.74708,-8.19924 -4.73931,-11.97152 -19.86969,-15.5067 -30.49918,-18.69237 -6.2877,-1.1357 -12.53439,-2.5283 -18.86311,-3.40706 -15.63747,-2.17127 -27.426572,-2.53604 -43.168483,-3.48379 -5.818229,-0.350271 -11.628534,-0.860547 -17.453556,-1.069197 -2.586791,-0.09265 -5.2846,-0.578815 -7.763561,0.166157 -3.927699,1.18019 -7.34481,3.65133 -11.017213,5.477 7.565473,-2.81239 15.223252,-5.385259 22.70805,-8.40582 5.009476,-2.021614 10.087134,-3.934149 14.865511,-6.453856 8.688355,-4.581461 29.780452,-14.754789 37.126602,-25.606222 2.2365,-3.303694 2.55798,-7.557924 3.83694,-11.336866 -1.08601,-3.695348 -1.75569,-7.539512 -3.25808,-11.086082 -1.56821,-3.701978 -3.71603,-7.143824 -5.89549,-10.522286 -3.66187,-5.676221 -8.854455,-12.926327 -15.060086,-16.356391 -2.47154,-1.366114 -5.487384,-3.025868 -8.184347,-2.188522 -7.352495,2.28274 -13.528224,7.353149 -20.29235,11.029724 -2.628628,2.848097 -5.582586,5.427275 -7.885869,8.544368 -13.567087,18.36067 -21.243538,45.51793 -24.521087,67.762953 -0.957509,6.49867 -1.175,13.08496 -1.7625,19.62748 -0.259212,6.26339 -0.708564,12.52178 -0.777632,18.79015 -0.04713,4.2798 0.645737,22.42479 0.925885,27.60396 0.164554,3.04228 0.362418,6.08373 0.64082,9.11774 0.175698,1.91462 -1.199463,5.62945 0.720942,5.72275 5.114981,0.24843 9.68861,-3.32118 14.532917,-4.98174 -0.894785,-6.87438 -2.360953,-13.69697 -2.635087,-20.63362 0,0 -14.011514,7.33561 -14.011514,7.33561 z" />
    </g>
  </g>
</svg>
